# xmcd
#
# Track frame offsets:
#	182
#	11830
#	25250
#	37835
#	56210
#	72847
#	87137
#	99835
#	111240
#	130302
#	142492
#	158725
#	171657
#	173077
#	177197
#	182342
#	191837
#	211760
#	228480
#	245912
#
# Disc length: 3403 seconds
#
# Revision: 2
# Processed by: cddbd v1.4PL0 Copyright (c) Steve Scherf et al.
# Submitted via: EZCDDA 4.3.2
#
DISCID=1c0d4914
DTITLE=Koka - American Roots
DYEAR=1900
DGENRE=
TTITLE0=daisy rag
TTITLE1=meldoy ranch
TTITLE2=hot road fever
TTITLE3=angelene the baker
TTITLE4=take a train
TTITLE5=muc bug
TTITLE6=my west virginia home
TTITLE7=karin's dream
TTITLE8=rosita
TTITLE9=wicklow mountain
TTITLE10=even the dog has the blues
TTITLE11=bayou lafayette
TTITLE12=pioneer medley
TTITLE13=pioneer medley2
TTITLE14=pioneer medley3
TTITLE15=pioneer medley4
TTITLE16=ain't that the blues
TTITLE17=loose shoes
TTITLE18=mc cloud's reel
TTITLE19=bourbon street march
EXTD=
EXTT0=
EXTT1=
EXTT2=
EXTT3=
EXTT4=
EXTT5=
EXTT6=
EXTT7=
EXTT8=
EXTT9=
EXTT10=
EXTT11=
EXTT12=
EXTT13=
EXTT14=
EXTT15=
EXTT16=
EXTT17=
EXTT18=
EXTT19=
PLAYORDER=
